HIERARCHY
ROOT Hips
{
	OFFSET -3.958830 18.904000 13.208200
	CHANNELS 6 Xposition Yposition Zposition Zrotation Yrotation Xrotation 
	JOINT LHipJoint
	{
		OFFSET 0.000000 0.000000 0.000000
		CHANNELS 3 Zrotation Yrotation Xrotation
		JOINT LeftUpLeg
		{
			OFFSET 1.800000 -1.400000 0.085000
			CHANNELS 3 Zrotation Yrotation Xrotation
			JOINT LeftLeg
			{
				OFFSET 2.215000 -6.000000 0.000000
				CHANNELS 3 Zrotation Yrotation Xrotation
				JOINT LeftFoot
				{
					OFFSET 2.500000 -6.900000 0.000000
					CHANNELS 3 Zrotation Yrotation Xrotation
					JOINT LeftToeBase
					{
						OFFSET 0.200000 -0.500000 1.950000
						CHANNELS 3 Zrotation Yrotation Xrotation
						End Site
						{
							OFFSET 0.000000 0.000000 0.000000
						}
					}
				}
			}
		}
	}
	JOINT RHipJoint
	{
		OFFSET 0.000000 0.000000 0.000000
		CHANNELS 3 Zrotation Yrotation Xrotation
		JOINT RightUpLeg
		{
			OFFSET -1.800000 -1.400000 0.085000
			CHANNELS 3 Zrotation Yrotation Xrotation
			JOINT RightLeg
			{
				OFFSET -2.215000 -6.000000 0.000000
				CHANNELS 3 Zrotation Yrotation Xrotation
				JOINT RightFoot
				{
					OFFSET -2.500000 -6.900000 0.000000
					CHANNELS 3 Zrotation Yrotation Xrotation
					JOINT RightToeBase
					{
						OFFSET -0.200000 -0.500000 1.950000
						CHANNELS 3 Zrotation Yrotation Xrotation
						End Site
						{
							OFFSET 0.000000 0.000000 0.000000
						}
					}
				}
			}
		}
	}
	JOINT LowerBack
	{
		OFFSET 0.000000 0.000000 0.000000
		CHANNELS 3 Zrotation Yrotation Xrotation
		JOINT Spine
		{
			OFFSET -0.087000 1.940000 -0.288900
			CHANNELS 3 Zrotation Yrotation Xrotation
			JOINT Spine1
			{
				OFFSET 0.000000 1.950000 0.060000
				CHANNELS 3 Zrotation Yrotation Xrotation
				JOINT Neck
				{
					OFFSET 0.000000 0.000000 0.000000
					CHANNELS 3 Zrotation Yrotation Xrotation
					JOINT Neck1
					{
						OFFSET 0.000000 1.600000 0.340000
						CHANNELS 3 Zrotation Yrotation Xrotation
						JOINT Head
						{
							OFFSET 0.000000 1.667000 -0.240000
							CHANNELS 3 Zrotation Yrotation Xrotation
							End Site
							{
								OFFSET 0.000000 0.000000 0.000000
							}
						}
					}
				}
				JOINT LeftShoulder
				{
					OFFSET 0.000000 0.000000 0.000000
					CHANNELS 3 Zrotation Yrotation Xrotation
					JOINT LeftArm
					{
						OFFSET 2.700000 1.550000 -0.730000
						CHANNELS 3 Zrotation Yrotation Xrotation
						JOINT LeftForeArm
						{
							OFFSET 5.450000 0.000000 0.000000
							CHANNELS 3 Zrotation Yrotation Xrotation
							JOINT LeftHand
							{
								OFFSET 3.450000 0.000000 0.000000
								CHANNELS 3 Zrotation Yrotation Xrotation
								JOINT LeftHandIndex1
								{
									OFFSET 0.750000 0.000000 0.000000
									CHANNELS 3 Zrotation Yrotation Xrotation
									End Site
									{
										OFFSET 0.000000 0.000000 0.000000
									}
								}
							}
						}
					}
				}
				JOINT RightShoulder
				{
					OFFSET 0.000000 0.000000 0.000000
					CHANNELS 3 Zrotation Yrotation Xrotation
					JOINT RightArm
					{
						OFFSET -2.700000 1.550000 -0.730000
						CHANNELS 3 Zrotation Yrotation Xrotation
						JOINT RightForeArm
						{
							OFFSET -5.450000 0.000000 0.000000
							CHANNELS 3 Zrotation Yrotation Xrotation
							JOINT RightHand
							{
								OFFSET -3.450000 0.000000 0.000000
								CHANNELS 3 Zrotation Yrotation Xrotation
								JOINT RightHandIndex1
								{
									OFFSET -0.750000 0.000000 0.000000
									CHANNELS 3 Zrotation Yrotation Xrotation
									End Site
									{
										OFFSET 0.000000 0.000000 0.000000
									}
								}
							}
						}
					}
				}
			}
		}
	}
}
MOTION
Frames: 13
Frame Time: 0.016667
1.523810 17.700120 -1.349010 2.013011 9.661471 -1.059154 -14.986196 13.023686 3.156088 -0.098227 -1.256578 -8.704615 -15.298978 8.162354 14.116278 -0.271530 5.268617 2.824033 -0.278780 -0.542580 -0.158310 18.557530 -10.282650 3.345028 5.739111 5.806080 -32.777741 -14.338863 0.041976 37.797481 -0.252396 -4.624318 2.696964 -0.210710 0.453500 0.092310 -4.399101 -2.002183 -7.895323 13.631080 -7.401184 12.718914 -15.103737 -5.017338 4.438015 4.317445 -0.953685 -8.906790 -5.035791 3.228736 42.570332 -4.669420 3.002730 0.651320 -23.839341 -8.895262 1.967230 -34.781420 -5.387041 -3.533248 -7.971955 -19.017606 0.077146 -4.028860 2.700314 0.417820 0.241170 -0.215530 -0.063230 14.335146 6.747222 6.882057 66.524451 -0.990799 -13.957980 40.380821 44.149214 9.680132 2.159976 -1.366928 -0.412770 0.302320 0.441610 -0.174720 
1.507020 17.680080 -1.323460 2.220344 9.755105 -2.030741 -14.984586 13.098246 3.156388 -0.263702 -0.995811 -7.690518 -14.708946 8.160586 14.485973 -0.258892 5.267425 2.810541 -0.238270 -0.489010 -0.122340 18.538018 -10.345432 3.320139 5.463062 5.384242 -32.914043 -13.754357 -0.140532 34.130429 -0.166242 -4.010241 2.895723 -0.193490 0.409480 0.100700 -4.382782 -1.988839 -7.908850 13.059888 -7.471624 13.158168 -15.253023 -5.086027 4.605256 4.333656 -0.572760 -9.140493 -4.456656 3.085855 43.844862 -4.735280 3.129820 -0.303630 -24.046612 -9.911684 2.326472 -33.688715 -5.917746 -2.996171 -6.921099 -16.884279 -0.134902 -4.013450 2.682340 0.436730 0.213660 -0.173490 -0.064340 14.538136 7.547529 6.879705 66.802790 0.141860 -13.561848 39.402574 43.729619 9.149325 2.175342 -1.353836 -0.386830 0.292200 0.417690 -0.178160 
1.484620 17.664740 -1.299620 2.418051 9.787813 -3.006885 -14.991177 13.181088 3.160427 -0.344551 -0.791488 -6.877760 -14.061416 8.203092 15.159218 -0.227701 5.255326 2.796610 -0.187260 -0.413990 -0.085210 18.505129 -10.412899 3.303133 5.009961 5.010419 -32.994362 -13.121677 -0.314621 31.117631 -0.107892 -3.517558 3.061036 -0.171510 0.353370 0.097160 -4.334197 -1.982466 -7.944174 12.149606 -7.312475 13.662105 -15.018763 -4.966285 4.766834 4.314450 -0.112459 -9.530447 -3.793878 2.850294 45.688267 -4.614580 3.172720 -0.927340 -24.190498 -11.131454 2.811378 -33.092731 -6.478576 -2.540897 -5.741563 -15.013069 -0.308361 -3.981231 2.675170 0.444930 0.178320 -0.129230 -0.059920 14.792843 8.638424 6.933089 66.645803 1.298839 -13.132668 37.794622 43.017034 8.334266 2.198158 -1.342942 -0.349610 0.276660 0.378380 -0.176010 
1.455850 17.646630 -1.278150 2.453365 9.944291 -3.782467 -15.009831 13.255893 3.147315 -0.142125 -0.736106 -6.561292 -13.473706 8.318095 16.196294 -0.208140 5.308652 2.767973 -0.162680 -0.380220 -0.069020 18.465509 -10.450091 3.300174 4.488387 4.773376 -33.225329 -12.512769 -0.484314 28.912567 -0.060446 -3.176967 3.178263 -0.163170 0.334460 0.103020 -4.258413 -2.011595 -7.965872 11.191050 -7.046026 13.880720 -14.486175 -4.777598 4.997200 4.239720 0.237218 -9.873079 -3.292884 2.582420 47.073426 -4.478060 3.043430 -0.990790 -23.961823 -12.201476 3.213562 -33.100154 -7.379496 -1.941331 -4.745804 -13.085278 -0.459284 -3.988456 2.659215 0.447000 0.167710 -0.109160 -0.056270 14.815082 9.682894 6.959978 66.532106 2.554007 -12.618019 35.613020 42.057548 7.342183 2.207384 -1.325284 -0.328780 0.269900 0.362900 -0.172110 
1.423200 17.635880 -1.256270 2.430999 10.117228 -4.681259 -15.034668 13.359075 3.139807 0.063836 -0.720632 -6.241755 -12.707697 8.429806 17.508719 -0.208883 5.384430 2.720715 -0.141550 -0.353440 -0.047180 18.414740 -10.491725 3.287424 3.784754 4.532666 -33.305579 -11.999035 -0.644034 27.655732 -0.042886 -2.968353 3.237807 -0.151840 0.303690 0.101800 -4.159160 -2.095258 -7.996800 10.104673 -6.818977 14.266025 -13.758091 -4.607584 5.224994 4.114102 0.379528 -10.435117 -3.284266 2.570649 48.963200 -4.273950 2.963690 -1.511990 -23.575697 -13.590319 3.821753 -33.607518 -8.070046 -1.424124 -3.536472 -11.449656 -0.617411 -3.983336 2.630229 0.473080 0.142280 -0.079210 -0.063950 14.804181 11.253112 7.063793 66.483638 4.026029 -12.102655 32.314154 40.191279 5.861495 2.217957 -1.273059 -0.321340 0.273350 0.357330 -0.179260 
1.389540 17.618260 -1.230810 2.195959 10.145604 -5.146885 -15.059539 13.413393 3.106756 0.502157 -0.858222 -6.514841 -12.303769 8.669001 19.011138 -0.199828 5.542622 2.665143 -0.146290 -0.363600 -0.064440 18.383959 -10.471805 3.295995 3.133565 4.533647 -33.845613 -11.636165 -0.741354 27.333307 -0.014865 -2.910108 3.261188 -0.147160 0.330930 0.101270 -4.079885 -2.195871 -7.978897 9.412208 -6.675235 14.017674 -12.999246 -4.529677 5.559890 3.855217 -0.084673 -10.644893 -4.276542 2.990989 49.154436 -3.700060 2.582770 -1.008500 -22.814176 -14.299488 4.150810 -34.804795 -8.929919 -0.861164 -2.629625 -10.304712 -0.718183 -4.014110 2.622455 0.464150 0.154270 -0.098310 -0.056730 14.664919 12.504090 6.988998 66.144810 5.750435 -11.050545 29.595991 37.989436 4.720096 2.221628 -1.246125 -0.330450 0.286000 0.368420 -0.171950 
1.354930 17.607340 -1.206710 1.928802 9.927608 -5.499202 -15.088112 13.446003 3.075583 0.970657 -0.979122 -6.859821 -12.130100 8.950741 20.327233 -0.173659 5.696873 2.616792 -0.154510 -0.358680 -0.101370 18.355568 -10.436743 3.312870 2.387657 4.644876 -34.553084 -11.493512 -0.764127 27.887849 -0.002857 -2.973008 3.247340 -0.135970 0.369180 0.088170 -3.990432 -2.287743 -7.960100 8.654333 -6.410911 13.667876 -12.035065 -4.354077 5.939046 3.515975 -0.612768 -10.835640 -5.375214 3.507742 49.179248 -2.857520 2.138060 -0.328000 -21.903839 -14.998088 4.481715 -36.438991 -9.842400 -0.263552 -1.935612 -9.300905 -0.762352 -4.037950 2.621108 0.439390 0.169820 -0.123790 -0.039760 14.558535 13.824071 6.917366 65.445930 7.479525 -9.823509 27.093895 35.603476 3.747339 2.230042 -1.224596 -0.338360 0.307360 0.374510 -0.150290 
1.320110 17.601550 -1.175750 1.279391 9.986499 -5.801821 -15.106818 13.463424 3.036298 1.896639 -1.122134 -7.225515 -12.189428 9.286916 21.436439 -0.128964 5.842328 2.565058 -0.142580 -0.323450 -0.116280 18.336975 -10.416216 3.318156 1.590265 4.752105 -35.088183 -11.150880 -0.885938 28.996548 -0.007707 -3.109358 3.210322 -0.117640 0.379820 0.069590 -3.935511 -2.332404 -7.931961 8.357663 -6.225890 13.168624 -10.979789 -4.251959 6.351211 3.234327 -0.950909 -10.964448 -6.064426 3.604508 49.068566 -2.470030 1.740880 0.108150 -20.915873 -15.677394 4.816170 -38.529927 -10.774462 0.275250 -1.555441 -8.772133 -0.747816 -4.038524 2.638199 0.403290 0.176470 -0.139370 -0.024630 14.236324 14.963696 6.829990 64.923107 9.062886 -8.570514 24.351272 32.885544 2.782746 2.245799 -1.213764 -0.327080 0.314540 0.358520 -0.130300 
1.286510 17.595070 -1.141900 0.579988 10.215447 -5.900645 -15.135274 13.477124 3.004758 2.871506 -1.319276 -7.795793 -12.325913 9.635698 22.489727 -0.085892 6.015954 2.510817 -0.143530 -0.315030 -0.133210 18.310492 -10.396222 3.295953 0.359557 4.769802 -35.599038 -10.345721 -1.232725 30.550271 -0.015784 -3.325210 3.139515 -0.110780 0.408920 0.066930 -3.857891 -2.393028 -7.884797 7.950311 -6.022368 12.441384 -9.743369 -4.203708 6.736433 2.941231 -1.161050 -10.962504 -6.388145 3.636850 48.382115 -2.182150 1.505700 0.746980 -19.774943 -16.142764 5.055157 -41.098737 -11.799399 0.860409 -1.275274 -8.474008 -0.738882 -4.056276 2.662367 0.365140 0.197580 -0.162510 -0.009850 13.792169 15.745577 6.689031 64.546035 10.439059 -7.290027 21.726780 30.148309 2.001285 2.259454 -1.208483 -0.321530 0.318540 0.352010 -0.111060 
1.253790 17.602910 -1.106590 -0.189605 10.464201 -6.042151 -15.156676 13.495670 2.990000 3.892153 -1.498737 -8.323016 -12.488626 9.943130 23.316554 -0.052487 6.173618 2.455710 -0.149490 -0.313650 -0.155710 18.283075 -10.418483 3.236301 -1.112571 4.621431 -35.624147 -9.176554 -1.780736 32.016126 -0.026716 -3.563632 3.057344 -0.108820 0.432970 0.072900 -3.791817 -2.414471 -7.838388 7.611838 -5.808642 11.734468 -8.519301 -4.162559 7.052583 2.698741 -1.211920 -11.009479 -6.412742 3.483838 48.109319 -2.119940 1.275340 1.413080 -19.044033 -16.772280 5.361194 -43.482162 -12.553959 1.334968 -1.026858 -8.399094 -0.736825 -4.069781 2.691995 0.334260 0.218560 -0.180730 0.001270 13.649165 16.590592 6.597029 63.946474 11.621767 -5.945059 19.003445 27.127537 1.333953 2.272023 -1.197617 -0.314240 0.314310 0.353030 -0.094590 
1.221270 17.613730 -1.067720 -0.966170 10.893367 -6.010624 -15.177871 13.505156 2.984703 4.823112 -1.677122 -8.958702 -12.722003 10.207722 23.879831 -0.029071 6.311010 2.420826 -0.174320 -0.331160 -0.201500 18.258945 -10.454813 3.139731 -2.611772 4.335099 -35.329271 -8.077993 -2.371963 33.295494 -0.026473 -3.818902 2.983506 -0.110760 0.483050 0.065730 -3.734245 -2.428453 -7.765544 7.306352 -5.680385 10.817479 -7.363633 -4.230195 7.319243 2.422657 -1.253563 -10.951645 -6.303390 3.442722 47.282264 -1.811540 1.095000 2.379440 -18.268888 -17.170362 5.600466 -46.093997 -13.157754 1.721748 -0.856579 -8.663771 -0.742534 -4.089547 2.714835 0.297690 0.252220 -0.220680 0.018190 13.506725 17.126313 6.448347 63.489672 12.636781 -4.542828 16.519784 24.009808 0.838110 2.280418 -1.187535 -0.325450 0.326100 0.364210 -0.075630 
1.184190 17.628550 -1.033310 -1.704765 11.036721 -5.840345 -15.193889 13.493311 2.992245 5.718603 -1.828774 -9.696529 -13.157984 10.457951 24.103663 0.021387 6.406629 2.403857 -0.187680 -0.333830 -0.240350 18.242168 -10.493968 3.038445 -3.918621 4.074710 -34.805052 -7.180662 -2.886338 34.394099 -0.035118 -4.062757 2.910122 -0.115380 0.527150 0.069750 -3.686997 -2.413957 -7.692003 7.038956 -5.422273 9.896271 -6.216401 -4.168096 7.541763 2.092936 -1.387466 -10.924798 -6.402353 3.442698 46.269411 -1.412710 0.862180 3.426960 -17.483226 -17.544021 5.821350 -48.869675 -13.775243 2.068497 -0.714575 -9.039835 -0.740687 -4.097511 2.760681 0.248140 0.280930 -0.249720 0.044190 13.446253 17.722020 6.396034 63.178071 13.338088 -3.362634 14.072357 21.101779 0.440697 2.304530 -1.198606 -0.315370 0.323160 0.358610 -0.043940 
1.146830 17.638380 -0.994640 -2.231360 11.139934 -5.502837 -15.218260 13.476868 3.024290 6.335710 -2.033296 -10.691838 -13.654429 10.725128 24.396304 0.062355 6.527976 2.384244 -0.233720 -0.378520 -0.303170 18.217906 -10.560736 2.873339 -5.590802 3.570435 -33.795002 -6.014610 -3.551789 35.011867 -0.009313 -4.289467 2.853431 -0.132100 0.598330 0.066250 -3.615486 -2.397265 -7.576154 6.501443 -5.103485 8.734920 -5.058094 -4.076889 7.749011 1.713728 -1.567185 -10.758599 -6.519464 3.521057 44.764460 -1.106640 0.705700 5.036090 -16.339213 -17.455409 5.874794 -52.026053 -14.475608 2.520584 -0.922884 -9.346096 -0.721161 -4.134208 2.799014 0.187500 0.331090 -0.310630 0.061600 13.133597 17.874518 6.269968 63.125040 13.891795 -2.222106 12.511823 18.327059 0.238381 2.325226 -1.216546 -0.326950 0.325400 0.375900 -0.016250 
